<svg xmlns="http://www.w3.org/2000/svg" xml:space="preserve" viewBox="0 0 1600 900">
  <path id="background" fill="#ddf5fb" d="M0 0h1600v900H0z"/>
  <g id="object">
    <path fill="#cbb4ff" d="m0 51.39 84.14 27.97L56.18 0H0z"/>
    <path fill="#c0b7ff" d="m0 112.14 84.14-32.78L0 51.39z"/>
    <path fill="#bcb9ff" d="m126.57 0-21.21 46.57 3.85 32.79H84.14L56.18 0z"/>
    <path fill="#aec2ff" d="m0 112.14 48.14 31.29L0 224.86z"/>
    <path fill="#a9c7ff" d="M0 279.71v-54.85l86.29-53.15z"/>
    <path fill="#b8beff" d="m48.14 143.43 36-64.07L0 112.14z"/>
    <path fill="#b8c0fe" d="m162.57 0-53.36 79.36-3.85-32.79L126.57 0z"/>
    <path fill="#e7c6fc" d="m0 900 206.29-201.57L0 673.36z"/>
    <path d="M313 900 206.29 698.43 0 900z" fill="#fac4fb"/>
    <path fill="#abdfff" d="m0 494 188.29 87.43L0 673.36z"/>
    <path fill="#aac7ff" d="m0 368 103.14-16.71L0 279.71z"/>
    <path fill="#acc8fe" d="m0 424.57 103.14-73.28L0 368z"/>
    <path fill="#bec0fe" d="m109.21 79.36-22.92 92.35L0 224.86l84.14-145.5z"/>
    <path fill="#bbc4fe" d="M103.14 351.29 86.29 171.71 0 279.71z"/>
    <path fill="#a3cdff" d="M188.29 581.43 0 424.57V494z"/>
    <path fill="#a7cfff" d="m103.14 351.29 85.15 230.14L0 424.57z"/>
    <path d="m206.29 698.43-18-117L0 673.36z" fill="#bed1fd"/>
    <path fill="#b3c9fe" d="m242.29 0-54 96.71L162.57 0z"/>
    <path fill="#bfc1fe" d="m109.21 79.36 79.08 17.35L162.57 0z"/>
    <path fill="#ccc1fd" d="m86.29 171.71 102-75-79.08-17.35z"/>
    <path fill="#dfc3fc" d="m103.14 351.29 85.15-254.58-102 75z"/>
    <path fill="#adecfe" d="m313 900 56.57-188.71L449.29 900z"/>
    <path fill="#b2dafe" d="m206.29 698.43 163.28 12.86L313 900z"/>
    <path d="m188.29 581.43 154.28 48.86-136.28 68.14z" fill="#94deff"/>
    <path fill="#9adeff" d="m369.57 711.29-27-81-136.28 68.14z"/>
    <path fill="#bcd0fd" d="M103.14 351.29 280.86 368 149.07 475.43z"/>
    <path fill="#98dcff" d="M188.29 581.43 280.86 368 149.07 475.43z"/>
    <path fill="#9fd6ff" d="M342.57 630.29 280.86 368l-92.57 213.43z"/>
    <path d="m188.29 96.71 99.64 110.58L132.4 263.8z" fill="#fac4fb"/>
    <path fill="#eac4fc" d="M280.86 368 132.4 263.8l-29.26 87.49z"/>
    <path d="M287.93 207.29 280.86 368 132.4 263.8z" fill="#fac4fb"/>
    <path fill="#c0c8fd" d="m242.29 0 45.64 207.29-99.64-110.58z"/>
    <path fill="#b8d0fe" d="m347.71 0-81.73 107.59L242.29 0z"/>
    <path fill="#e1c7fc" d="m287.93 207.29 81.21-99.7H265.98z"/>
    <path d="M280.86 368 376 287.64l-88.07-80.35z" fill="#fac4fb"/>
    <path d="M369.14 107.59 376 287.64l-88.07-80.35z" fill="#fac4fb"/>
    <path fill="#bff4fe" d="m449.29 900 68.14-107.71L621.57 900z"/>
    <path fill="#c1f3fe" d="M754 900 590.71 647l30.86 253z"/>
    <path fill="#baeefe" d="M517.43 792.29 590.71 647l30.86 253z"/>
    <path fill="#b1edfe" d="m369.57 711.29 147.86 81L449.29 900z"/>
    <path fill="#9de3ff" d="m590.71 647-221.14 64.29 147.86 81z"/>
    <path d="m342.57 630.29 181.29-163.93-154.29 244.93zM590.71 647l-66.85-180.64-154.29 244.93z" fill="#94deff"/>
    <path fill="#eebffc" d="m376 287.64-69.87 187.79L280.86 368z"/>
    <path fill="#b6c0ff" d="m342.57 630.29 83.57-195.43-120.01 40.57z"/>
    <path fill="#a0d5ff" d="m523.86 466.36-97.72-31.5-83.57 195.43z"/>
    <path d="m376 287.64 50.14 147.22-120.01 40.57z" fill="#d2bcfe"/>
    <path fill="#c6d0fd" d="M369.14 107.59 347.71 0l-81.73 107.59z"/>
    <path fill="#e3c5fc" d="m376 287.64 178.71-7.93-128.57 155.15z"/>
    <path d="m523.86 466.36 138.85 8.35-72 172.29z" fill="#d2bcfe"/>
    <path fill="#bfe2fe" d="M369.14 107.59 465.36 0H347.71z"/>
    <path d="m376 287.64 178.71-152.35-185.57-27.7z" fill="#fac4fb"/>
    <path fill="#cbe1fd" d="m754 900 90-216.07-163.14 102.75z"/>
    <path d="m590.71 647 232.08-104.79-160.08-67.5z" fill="#fac4fb"/>
    <path fill="#cfc6fd" d="m680.86 786.68 141.93-244.47L590.71 647z"/>
    <path fill="#ebc8fc" d="m844 683.93-21.21-141.72-141.93 244.47z"/>
    <path fill="#d9d1fc" d="M909.57 900 844 683.93 754 900z"/>
    <path fill="#cae1fd" d="m465.36 0 89.35 135.29-185.57-27.7z"/>
    <path fill="#f7c2fb" d="M554.71 279.71V135.29L376 287.64z"/>
    <path fill="#bfcefd" d="m523.86 466.36 30.85-186.65-128.57 155.15z"/>
    <path fill="#cbe5fd" d="M554.71 135.29 644.39 0H465.36z"/>
    <path fill="#ebbcfd" d="M554.71 279.71 722.5 157.44l-167.79-22.15z"/>
    <path d="m523.86 466.36 188.03-128.57-157.18-58.08z" fill="#eabefc"/>
    <path fill="#c7b9ff" d="m662.71 474.71 49.18-136.92-188.03 128.57z"/>
    <path fill="#c8d4fd" d="m909.57 900 88.72-216.07L1058.07 900z"/>
    <path fill="#d4d1fc" d="M844 683.93h154.29L909.57 900z"/>
    <path d="m711.89 337.79 10.61-180.35-167.79 122.27z" fill="#e8bbfd"/>
    <path fill="#cfd5fd" d="m644.39 0 78.11 157.44-167.79-22.15z"/>
    <path fill="#dab2ff" d="m711.89 337.79 188.04-103.18-177.43-77.17z"/>
    <path d="m822.79 542.21 112.82-155.25-272.9 87.75z" fill="#eabefc"/>
    <path d="m711.89 337.79 223.72 49.17-272.9 87.75z" fill="#d2bcfe"/>
    <path fill="#c8defe" d="m722.5 157.44 161.36-78.72L644.39 0z"/>
    <path fill="#cfbbff" d="M899.93 234.61 883.86 78.72 722.5 157.44z"/>
    <path fill="#d3b2ff" d="m935.61 386.96-35.68-152.35-188.04 103.18z"/>
    <path fill="#c3eafe" d="M883.86 78.72 922.43 0H644.39z"/>
    <path fill="#f2c0fc" d="m998.29 683.93-70.72-161.64L844 683.93z"/>
    <path fill="#ddb4fe" d="m822.79 542.21 104.78-19.92L844 683.93z"/>
    <path d="m935.61 386.96-8.04 135.33-104.78 19.92z" fill="#e8bbfd"/>
    <path fill="#c9cdfd" d="m998.29 683.93 135 76.21L1058.07 900z"/>
    <path fill="#a4dbfe" d="m1183.43 900-50.14-139.86L1058.07 900z"/>
    <path d="m927.57 522.29 117-55.93-46.28 217.57z" fill="#e8bbfd"/>
    <path fill="#f2c5fb" d="m1133.29 760.14-50.15-178.71-84.85 102.5z"/>
    <path d="m1044.57 466.36 38.57 115.07-84.85 102.5z" fill="#eabcfd"/>
    <path fill="#b4c3ff" d="m935.61 386.96 62.68-76.17-98.36-76.18z"/>
    <path d="m1044.57 466.36-46.28-155.57-62.68 76.17-8.04 135.33z" fill="#c8b6ff"/>
    <path fill="#b4c6ff" d="m883.86 78.72 249.43 87.42-233.36 68.47z"/>
    <path fill="#abccff" d="m998.29 310.79 135-144.65-233.36 68.47z"/>
    <path fill="#b5dcff" d="M922.43 0h223.71L883.86 78.72z"/>
    <path fill="#afd1ff" d="M1133.29 166.14 1146.14 0 883.86 78.72z"/>
    <path d="m1133.29 760.14 83.57-95.69L1183.43 900z" fill="#bed1fd"/>
    <path fill="#f7c3fb" d="m1083.14 581.43 133.72 83.02-83.57 95.69z"/>
    <path fill="#f3c1fc" d="m1044.57 466.36 225-167.79-186.43 282.86z"/>
    <path fill="#e8c2fc" d="m1216.86 664.45 99-189.02-232.72 106z"/>
    <path fill="#9bd9ff" d="M998.29 310.79h122.46l12.54-144.65z"/>
    <path fill="#b4c8ff" d="m1044.57 466.36 76.18-155.57H998.29z"/>
    <path fill="#bbcefe" d="m1269.57 298.57-148.82 12.22-76.18 155.57z"/>
    <path fill="#a6cbff" d="M1133.29 166.14 1237.43 0h-91.29z"/>
    <path fill="#a2dbfe" d="m1269.57 298.57-136.28-132.43-12.54 144.65z"/>
    <path fill="#b4cefe" d="m1237.43 0 32.14 298.57-136.28-132.43z"/>
    <path d="m1315.86 475.43-130.5-49.09-102.22 155.09z" fill="#eabcfd"/>
    <path fill="#c5bcfe" d="m1269.57 298.57 46.29 176.86-130.5-49.09z"/>
    <path fill="#b1dbfe" d="M1183.43 900H1321l-125.02-88.47z"/>
    <path fill="#d5c5fd" d="m1216.86 664.45 151.71 12.12-172.59 134.96z"/>
    <path fill="#cbc6fe" d="m1321 900 47.57-223.43-172.59 134.96z"/>
    <path fill="#cebefe" d="m1315.86 475.43 52.71 201.14-151.71-12.12z"/>
    <path fill="#efc5fb" d="m1269.57 298.57 99-298.57h-131.14z"/>
    <path d="m1315.86 475.43 150.43-187.79-196.72 10.93z" fill="#c8b6ff"/>
    <path fill="#e9c4fc" d="M1368.57 0H1600l-278.99 143.43z"/>
    <path d="m1600 188-278.99-44.57L1600 0z" fill="#fac4fb"/>
    <path fill="#d4c8fc" d="m1466.29 287.64-145.28-144.21-51.44 155.14z"/>
    <path fill="#beeafe" d="m1457.29 900-112.16-113.32L1321 900z"/>
    <path fill="#cac5ff" d="M1368.57 676.57 1600 753.71 1457.29 900l-112.16-113.32z"/>
    <path fill="#a7e2ff" d="M1600 900V753.71L1457.29 900z"/>
    <path d="M1466.29 287.64 1600 188l-278.99-44.57z" fill="#fac4fb"/>
    <path fill="#c6ccfd" d="m1600 396.29-133.71-108.65L1600 188z"/>
    <path fill="#b0c7ff" d="M1600 475.43h-284.14l150.43-187.79L1600 396.29z"/>
    <path fill="#b3c7ff" d="m1600 647-231.43 29.57L1600 753.71z"/>
    <path fill="#c1c1fe" d="M1315.86 475.43 1600 647l-231.43 29.57z"/>
    <path fill="#b9c0ff" d="M1600 475.43V647l-284.14-171.57z"/>
  </g>
</svg>
